<?xml version="1.0"?>
<svg xmlns:rdf="http://www.w3.org/1999/02/22-rdf-syntax-ns#" xmlns="http://www.w3.org/2000/svg" xmlns:cc="http://web.resource.org/cc/" xmlns:xlink="http://www.w3.org/1999/xlink" xmlns:dc="http://purl.org/dc/elements/1.1/" xmlns:svg="http://www.w3.org/2000/svg" version="1.1" viewBox="0 0 612 792">
  <defs>
    <clipPath id="clip1">
      <path d="m0 792h612v-792h-612v792z"/>
    </clipPath>
    <clipPath id="clip2">
      <path d="m0 0h612v792h-612v-792z"/>
    </clipPath>
  </defs>
  <g id="surface0">
    <g stroke="#100e0c" clip-path="url(#clip1)">
      <path fill="#fff" d="m-0.00004375 0.00048125c0-2.4844-2.0157-4.5-4.5-4.5h-240.7c-2.48 0-4.5 2.0156-4.5 4.5v39.024c0 2.484 2.02 4.5 4.5 4.5h240.7c2.4843 0 4.5-2.016 4.5-4.5l-0.00004375-39.024z" transform="matrix(1 0 0 -1 285.85 80.012)"/>
      <path fill="none" d="m-0.00004375 0.00048125c0-2.4844-2.0157-4.5-4.5-4.5h-240.7c-2.48 0-4.5 2.0156-4.5 4.5v39.024c0 2.484 2.02 4.5 4.5 4.5h240.7c2.4843 0 4.5-2.016 4.5-4.5l-0.00004375-39.024z" transform="matrix(1 0 0 -1 285.85 80.012)"/>
      <path fill="#fff" d="m-0.00004375-0.0014312c0-2.4844-2.0157-4.5-4.5-4.5h-240.7c-2.48 0-4.5 2.0156-4.5 4.5v39.027c0 2.484 2.02 4.5 4.5 4.5h240.7c2.4843 0 4.5-2.016 4.5-4.5l-0.00004375-39.027z" transform="matrix(1 0 0 -1 285.85 128.14)"/>
      <path fill="none" d="m-0.00004375-0.0014312c0-2.4844-2.0157-4.5-4.5-4.5h-240.7c-2.48 0-4.5 2.0156-4.5 4.5v39.027c0 2.484 2.02 4.5 4.5 4.5h240.7c2.4843 0 4.5-2.016 4.5-4.5l-0.00004375-39.027z" transform="matrix(1 0 0 -1 285.85 128.14)"/>
      <path fill="#fff" d="m-0.00004375 0.00045625c0-2.4844-2.0157-4.5-4.5-4.5h-240.7c-2.48 0-4.5 2.0156-4.5 4.5v39.024c0 2.484 2.02 4.5 4.5 4.5h240.7c2.4843 0 4.5-2.016 4.5-4.5l-0.00004375-39.024z" transform="matrix(1 0 0 -1 285.85 176.28)"/>
      <path fill="none" d="m-0.00004375 0.00045625c0-2.4844-2.0157-4.5-4.5-4.5h-240.7c-2.48 0-4.5 2.0156-4.5 4.5v39.024c0 2.484 2.02 4.5 4.5 4.5h240.7c2.4843 0 4.5-2.016 4.5-4.5l-0.00004375-39.024z" transform="matrix(1 0 0 -1 285.85 176.28)"/>
      <path fill="#fff" d="m-0.00004375-0.0014625c0-2.4843-2.0157-4.5-4.5-4.5h-240.7c-2.48 0-4.5 2.0157-4.5 4.5v39.028c0 2.484 2.02 4.5 4.5 4.5h240.7c2.4843 0 4.5-2.016 4.5-4.5l-0.00004375-39.027z" transform="matrix(1 0 0 -1 285.85 224.41)"/>
      <path fill="none" d="m-0.00004375-0.0014625c0-2.4843-2.0157-4.5-4.5-4.5h-240.7c-2.48 0-4.5 2.0157-4.5 4.5v39.028c0 2.484 2.02 4.5 4.5 4.5h240.7c2.4843 0 4.5-2.016 4.5-4.5l-0.00004375-39.027z" transform="matrix(1 0 0 -1 285.85 224.41)"/>
      <path fill="#fff" d="m-0.00004375 0.000525c0-2.4843-2.0157-4.5-4.5-4.5h-240.7c-2.48 0-4.5 2.0157-4.5 4.5v39.024c0 2.484 2.02 4.5 4.5 4.5h240.7c2.4843 0 4.5-2.016 4.5-4.5l-0.00004375-39.023z" transform="matrix(1 0 0 -1 285.85 272.55)"/>
      <path fill="none" d="m-0.00004375 0.000525c0-2.4843-2.0157-4.5-4.5-4.5h-240.7c-2.48 0-4.5 2.0157-4.5 4.5v39.024c0 2.484 2.02 4.5 4.5 4.5h240.7c2.4843 0 4.5-2.016 4.5-4.5l-0.00004375-39.023z" transform="matrix(1 0 0 -1 285.85 272.55)"/>
      <path fill="#fff" d="m-0.00004375-0.0014938c0-2.4844-2.0157-4.5-4.5-4.5h-240.7c-2.48 0-4.5 2.0156-4.5 4.5v39.028c0 2.484 2.02 4.5 4.5 4.5h240.7c2.4843 0 4.5-2.016 4.5-4.5l-0.00004375-39.027z" transform="matrix(1 0 0 -1 285.85 320.68)"/>
      <path fill="none" d="m-0.00004375-0.0014938c0-2.4844-2.0157-4.5-4.5-4.5h-240.7c-2.48 0-4.5 2.0156-4.5 4.5v39.028c0 2.484 2.02 4.5 4.5 4.5h240.7c2.4843 0 4.5-2.016 4.5-4.5l-0.00004375-39.027z" transform="matrix(1 0 0 -1 285.85 320.68)"/>
      <path fill="#fff" d="m-0.00004375 0.00049375c0-2.4844-2.0157-4.5-4.5-4.5h-240.7c-2.48 0-4.5 2.0156-4.5 4.5v39.024c0 2.484 2.02 4.5 4.5 4.5h240.7c2.4843 0 4.5-2.016 4.5-4.5l-0.00004375-39.024z" transform="matrix(1 0 0 -1 285.85 368.82)"/>
      <path fill="none" d="m-0.00004375 0.00049375c0-2.4844-2.0157-4.5-4.5-4.5h-240.7c-2.48 0-4.5 2.0156-4.5 4.5v39.024c0 2.484 2.02 4.5 4.5 4.5h240.7c2.4843 0 4.5-2.016 4.5-4.5l-0.00004375-39.024z" transform="matrix(1 0 0 -1 285.85 368.82)"/>
      <path fill="#fff" d="m-0.00004375-0.001925c0-2.4805-2.0157-4.5-4.5-4.5h-240.7c-2.48 0-4.5 2.0195-4.5 4.5v39.027c0 2.485 2.02 4.5 4.5 4.5h240.7c2.4843 0 4.5-2.015 4.5-4.5l-0.00004375-39.027z" transform="matrix(1 0 0 -1 285.85 416.95)"/>
      <path fill="none" d="m-0.00004375-0.001925c0-2.4805-2.0157-4.5-4.5-4.5h-240.7c-2.48 0-4.5 2.0195-4.5 4.5v39.027c0 2.485 2.02 4.5 4.5 4.5h240.7c2.4843 0 4.5-2.015 4.5-4.5l-0.00004375-39.027z" transform="matrix(1 0 0 -1 285.85 416.95)"/>
      <path fill="#fff" d="m-0.00004375-0.0000375c0-2.4844-2.0157-4.5-4.5-4.5h-240.7c-2.48 0-4.5 2.0156-4.5 4.5v39.023c0 2.489 2.02 4.5 4.5 4.5h240.7c2.4843 0 4.5-2.011 4.5-4.5l-0.00004375-39.023z" transform="matrix(1 0 0 -1 285.85 465.09)"/>
      <path fill="none" d="m-0.00004375-0.0000375c0-2.4844-2.0157-4.5-4.5-4.5h-240.7c-2.48 0-4.5 2.0156-4.5 4.5v39.023c0 2.489 2.02 4.5 4.5 4.5h240.7c2.4843 0 4.5-2.011 4.5-4.5l-0.00004375-39.023z" transform="matrix(1 0 0 -1 285.85 465.09)"/>
      <path fill="#fff" d="m-0.00004375 0.00195c0-2.4844-2.0157-4.5-4.5-4.5h-240.7c-2.48 0-4.5 2.0156-4.5 4.5v39.019c0 2.489 2.02 4.5 4.5 4.5h240.7c2.4843 0 4.5-2.011 4.5-4.5l-0.00004375-39.019z" transform="matrix(1 0 0 -1 285.85 513.22)"/>
      <path fill="none" d="m-0.00004375 0.00195c0-2.4844-2.0157-4.5-4.5-4.5h-240.7c-2.48 0-4.5 2.0156-4.5 4.5v39.019c0 2.489 2.02 4.5 4.5 4.5h240.7c2.4843 0 4.5-2.011 4.5-4.5l-0.00004375-39.019z" transform="matrix(1 0 0 -1 285.85 513.22)"/>
      <path fill="#fff" d="m-0.00004375 0.00003125c0-2.4843-2.0157-4.5-4.5-4.5h-240.7c-2.48 0-4.5 2.0157-4.5 4.5v39.023c0 2.489 2.02 4.5 4.5 4.5h240.7c2.4843 0 4.5-2.011 4.5-4.5l-0.00004375-39.023z" transform="matrix(1 0 0 -1 285.85 561.36)"/>
      <path fill="none" d="m-0.00004375 0.00003125c0-2.4843-2.0157-4.5-4.5-4.5h-240.7c-2.48 0-4.5 2.0157-4.5 4.5v39.023c0 2.489 2.02 4.5 4.5 4.5h240.7c2.4843 0 4.5-2.011 4.5-4.5l-0.00004375-39.023z" transform="matrix(1 0 0 -1 285.85 561.36)"/>
      <path fill="#fff" d="m-0.00004375 0.0019188c0-2.4844-2.0157-4.5-4.5-4.5h-240.7c-2.48 0-4.5 2.0156-4.5 4.5v39.019c0 2.489 2.02 4.5 4.5 4.5h240.7c2.4843 0 4.5-2.011 4.5-4.5l-0.00004375-39.019z" transform="matrix(1 0 0 -1 285.85 609.49)"/>
      <path fill="none" d="m-0.00004375 0.0019188c0-2.4844-2.0157-4.5-4.5-4.5h-240.7c-2.48 0-4.5 2.0156-4.5 4.5v39.019c0 2.489 2.02 4.5 4.5 4.5h240.7c2.4843 0 4.5-2.011 4.5-4.5l-0.00004375-39.019z" transform="matrix(1 0 0 -1 285.85 609.49)"/>
      <path fill="#fff" d="m-0.00004375 0c0-2.4844-2.0157-4.5-4.5-4.5h-240.7c-2.48 0-4.5 2.0156-4.5 4.5v39.023c0 2.489 2.02 4.5 4.5 4.5h240.7c2.4843 0 4.5-2.011 4.5-4.5l-0.00004375-39.023z" transform="matrix(1 0 0 -1 285.85 657.62)"/>
      <path fill="none" d="m-0.00004375 0c0-2.4844-2.0157-4.5-4.5-4.5h-240.7c-2.48 0-4.5 2.0156-4.5 4.5v39.023c0 2.489 2.02 4.5 4.5 4.5h240.7c2.4843 0 4.5-2.011 4.5-4.5l-0.00004375-39.023z" transform="matrix(1 0 0 -1 285.85 657.62)"/>
      <path fill="#fff" d="m-0.00004375-0.0019188c0-2.4805-2.0157-4.5-4.5-4.5h-240.7c-2.48 0-4.5 2.0195-4.5 4.5v39.024c0 2.488 2.02 4.5 4.5 4.5h240.7c2.4843 0 4.5-2.012 4.5-4.5l-0.00004375-39.024z" transform="matrix(1 0 0 -1 285.85 705.76)"/>
      <path fill="none" d="m-0.00004375-0.0019188c0-2.4805-2.0157-4.5-4.5-4.5h-240.7c-2.48 0-4.5 2.0195-4.5 4.5v39.024c0 2.488 2.02 4.5 4.5 4.5h240.7c2.4843 0 4.5-2.012 4.5-4.5l-0.00004375-39.024z" transform="matrix(1 0 0 -1 285.85 705.76)"/>
      <path fill="#fff" d="m-0.00004375-0.00003125c0-2.4844-2.0157-4.5-4.5-4.5h-240.7c-2.48 0-4.5 2.0156-4.5 4.5v39.023c0 2.489 2.02 4.5 4.5 4.5h240.7c2.4843 0 4.5-2.011 4.5-4.5l-0.00004375-39.023z" transform="matrix(1 0 0 -1 285.85 753.89)"/>
      <path fill="none" d="m-0.00004375-0.00003125c0-2.4844-2.0157-4.5-4.5-4.5h-240.7c-2.48 0-4.5 2.0156-4.5 4.5v39.023c0 2.489 2.02 4.5 4.5 4.5h240.7c2.4843 0 4.5-2.011 4.5-4.5l-0.00004375-39.023z" transform="matrix(1 0 0 -1 285.85 753.89)"/>
      <path fill="#fff" d="m-0.00004375 0.00048125c0-2.4844-2.0157-4.5-4.5-4.5h-240.7c-2.48 0-4.5 2.0156-4.5 4.5v39.024c0 2.484 2.02 4.5 4.5 4.5h240.7c2.4843 0 4.5-2.016 4.5-4.5l-0.00004375-39.024z" transform="matrix(1 0 0 -1 575.35 80.012)"/>
      <path fill="none" d="m-0.00004375 0.00048125c0-2.4844-2.0157-4.5-4.5-4.5h-240.7c-2.48 0-4.5 2.0156-4.5 4.5v39.024c0 2.484 2.02 4.5 4.5 4.5h240.7c2.4843 0 4.5-2.016 4.5-4.5l-0.00004375-39.024z" transform="matrix(1 0 0 -1 575.35 80.012)"/>
      <path fill="#fff" d="m-0.00004375-0.0014312c0-2.4844-2.0157-4.5-4.5-4.5h-240.7c-2.48 0-4.5 2.0156-4.5 4.5v39.027c0 2.484 2.02 4.5 4.5 4.5h240.7c2.4843 0 4.5-2.016 4.5-4.5l-0.00004375-39.027z" transform="matrix(1 0 0 -1 575.35 128.14)"/>
      <path fill="none" d="m-0.00004375-0.0014312c0-2.4844-2.0157-4.5-4.5-4.5h-240.7c-2.48 0-4.5 2.0156-4.5 4.5v39.027c0 2.484 2.02 4.5 4.5 4.5h240.7c2.4843 0 4.5-2.016 4.5-4.5l-0.00004375-39.027z" transform="matrix(1 0 0 -1 575.35 128.14)"/>
      <path fill="#fff" d="m-0.00004375 0.00045625c0-2.4844-2.0157-4.5-4.5-4.5h-240.7c-2.48 0-4.5 2.0156-4.5 4.5v39.024c0 2.484 2.02 4.5 4.5 4.5h240.7c2.4843 0 4.5-2.016 4.5-4.5l-0.00004375-39.024z" transform="matrix(1 0 0 -1 575.35 176.28)"/>
      <path fill="none" d="m-0.00004375 0.00045625c0-2.4844-2.0157-4.5-4.5-4.5h-240.7c-2.48 0-4.5 2.0156-4.5 4.5v39.024c0 2.484 2.02 4.5 4.5 4.5h240.7c2.4843 0 4.5-2.016 4.5-4.5l-0.00004375-39.024z" transform="matrix(1 0 0 -1 575.35 176.28)"/>
      <path fill="#fff" d="m-0.00004375-0.0014625c0-2.4843-2.0157-4.5-4.5-4.5h-240.7c-2.48 0-4.5 2.0157-4.5 4.5v39.028c0 2.484 2.02 4.5 4.5 4.5h240.7c2.4843 0 4.5-2.016 4.5-4.5l-0.00004375-39.027z" transform="matrix(1 0 0 -1 575.35 224.41)"/>
      <path fill="none" d="m-0.00004375-0.0014625c0-2.4843-2.0157-4.5-4.5-4.5h-240.7c-2.48 0-4.5 2.0157-4.5 4.5v39.028c0 2.484 2.02 4.5 4.5 4.5h240.7c2.4843 0 4.5-2.016 4.5-4.5l-0.00004375-39.027z" transform="matrix(1 0 0 -1 575.35 224.41)"/>
      <path fill="#fff" d="m-0.00004375 0.000525c0-2.4843-2.0157-4.5-4.5-4.5h-240.7c-2.48 0-4.5 2.0157-4.5 4.5v39.024c0 2.484 2.02 4.5 4.5 4.5h240.7c2.4843 0 4.5-2.016 4.5-4.5l-0.00004375-39.023z" transform="matrix(1 0 0 -1 575.35 272.55)"/>
      <path fill="none" d="m-0.00004375 0.000525c0-2.4843-2.0157-4.5-4.5-4.5h-240.7c-2.48 0-4.5 2.0157-4.5 4.5v39.024c0 2.484 2.02 4.5 4.5 4.5h240.7c2.4843 0 4.5-2.016 4.5-4.5l-0.00004375-39.023z" transform="matrix(1 0 0 -1 575.35 272.55)"/>
      <path fill="#fff" d="m-0.00004375-0.0014938c0-2.4844-2.0157-4.5-4.5-4.5h-240.7c-2.48 0-4.5 2.0156-4.5 4.5v39.028c0 2.484 2.02 4.5 4.5 4.5h240.7c2.4843 0 4.5-2.016 4.5-4.5l-0.00004375-39.027z" transform="matrix(1 0 0 -1 575.35 320.68)"/>
      <path fill="none" d="m-0.00004375-0.0014938c0-2.4844-2.0157-4.5-4.5-4.5h-240.7c-2.48 0-4.5 2.0156-4.5 4.5v39.028c0 2.484 2.02 4.5 4.5 4.5h240.7c2.4843 0 4.5-2.016 4.5-4.5l-0.00004375-39.027z" transform="matrix(1 0 0 -1 575.35 320.68)"/>
      <path fill="#fff" d="m-0.00004375 0.00049375c0-2.4844-2.0157-4.5-4.5-4.5h-240.7c-2.48 0-4.5 2.0156-4.5 4.5v39.024c0 2.484 2.02 4.5 4.5 4.5h240.7c2.4843 0 4.5-2.016 4.5-4.5l-0.00004375-39.024z" transform="matrix(1 0 0 -1 575.35 368.82)"/>
      <path fill="none" d="m-0.00004375 0.00049375c0-2.4844-2.0157-4.5-4.5-4.5h-240.7c-2.48 0-4.5 2.0156-4.5 4.5v39.024c0 2.484 2.02 4.5 4.5 4.5h240.7c2.4843 0 4.5-2.016 4.5-4.5l-0.00004375-39.024z" transform="matrix(1 0 0 -1 575.35 368.82)"/>
      <path fill="#fff" d="m-0.00004375-0.001925c0-2.4805-2.0157-4.5-4.5-4.5h-240.7c-2.48 0-4.5 2.0195-4.5 4.5v39.027c0 2.485 2.02 4.5 4.5 4.5h240.7c2.4843 0 4.5-2.015 4.5-4.5l-0.00004375-39.027z" transform="matrix(1 0 0 -1 575.35 416.95)"/>
      <path fill="none" d="m-0.00004375-0.001925c0-2.4805-2.0157-4.5-4.5-4.5h-240.7c-2.48 0-4.5 2.0195-4.5 4.5v39.027c0 2.485 2.02 4.5 4.5 4.5h240.7c2.4843 0 4.5-2.015 4.5-4.5l-0.00004375-39.027z" transform="matrix(1 0 0 -1 575.35 416.95)"/>
      <path fill="#fff" d="m-0.00004375-0.0000375c0-2.4844-2.0157-4.5-4.5-4.5h-240.7c-2.48 0-4.5 2.0156-4.5 4.5v39.023c0 2.489 2.02 4.5 4.5 4.5h240.7c2.4843 0 4.5-2.011 4.5-4.5l-0.00004375-39.023z" transform="matrix(1 0 0 -1 575.35 465.09)"/>
      <path fill="none" d="m-0.00004375-0.0000375c0-2.4844-2.0157-4.5-4.5-4.5h-240.7c-2.48 0-4.5 2.0156-4.5 4.5v39.023c0 2.489 2.02 4.5 4.5 4.5h240.7c2.4843 0 4.5-2.011 4.5-4.5l-0.00004375-39.023z" transform="matrix(1 0 0 -1 575.35 465.09)"/>
      <path fill="#fff" d="m-0.00004375 0.00195c0-2.4844-2.0157-4.5-4.5-4.5h-240.7c-2.48 0-4.5 2.0156-4.5 4.5v39.019c0 2.489 2.02 4.5 4.5 4.5h240.7c2.4843 0 4.5-2.011 4.5-4.5l-0.00004375-39.019z" transform="matrix(1 0 0 -1 575.35 513.22)"/>
      <path fill="none" d="m-0.00004375 0.00195c0-2.4844-2.0157-4.5-4.5-4.5h-240.7c-2.48 0-4.5 2.0156-4.5 4.5v39.019c0 2.489 2.02 4.5 4.5 4.5h240.7c2.4843 0 4.5-2.011 4.5-4.5l-0.00004375-39.019z" transform="matrix(1 0 0 -1 575.35 513.22)"/>
      <path fill="#fff" d="m-0.00004375 0.00003125c0-2.4843-2.0157-4.5-4.5-4.5h-240.7c-2.48 0-4.5 2.0157-4.5 4.5v39.023c0 2.489 2.02 4.5 4.5 4.5h240.7c2.4843 0 4.5-2.011 4.5-4.5l-0.00004375-39.023z" transform="matrix(1 0 0 -1 575.35 561.36)"/>
      <path fill="none" d="m-0.00004375 0.00003125c0-2.4843-2.0157-4.5-4.5-4.5h-240.7c-2.48 0-4.5 2.0157-4.5 4.5v39.023c0 2.489 2.02 4.5 4.5 4.5h240.7c2.4843 0 4.5-2.011 4.5-4.5l-0.00004375-39.023z" transform="matrix(1 0 0 -1 575.35 561.36)"/>
      <path fill="#fff" d="m-0.00004375 0.0019188c0-2.4844-2.0157-4.5-4.5-4.5h-240.7c-2.48 0-4.5 2.0156-4.5 4.5v39.019c0 2.489 2.02 4.5 4.5 4.5h240.7c2.4843 0 4.5-2.011 4.5-4.5l-0.00004375-39.019z" transform="matrix(1 0 0 -1 575.35 609.49)"/>
      <path fill="none" d="m-0.00004375 0.0019188c0-2.4844-2.0157-4.5-4.5-4.5h-240.7c-2.48 0-4.5 2.0156-4.5 4.5v39.019c0 2.489 2.02 4.5 4.5 4.5h240.7c2.4843 0 4.5-2.011 4.5-4.5l-0.00004375-39.019z" transform="matrix(1 0 0 -1 575.35 609.49)"/>
      <path fill="#fff" d="m-0.00004375 0c0-2.4844-2.0157-4.5-4.5-4.5h-240.7c-2.48 0-4.5 2.0156-4.5 4.5v39.023c0 2.489 2.02 4.5 4.5 4.5h240.7c2.4843 0 4.5-2.011 4.5-4.5l-0.00004375-39.023z" transform="matrix(1 0 0 -1 575.35 657.62)"/>
      <path fill="none" d="m-0.00004375 0c0-2.4844-2.0157-4.5-4.5-4.5h-240.7c-2.48 0-4.5 2.0156-4.5 4.5v39.023c0 2.489 2.02 4.5 4.5 4.5h240.7c2.4843 0 4.5-2.011 4.5-4.5l-0.00004375-39.023z" transform="matrix(1 0 0 -1 575.35 657.62)"/>
      <path fill="#fff" d="m-0.00004375-0.0019188c0-2.4805-2.0157-4.5-4.5-4.5h-240.7c-2.48 0-4.5 2.0195-4.5 4.5v39.024c0 2.488 2.02 4.5 4.5 4.5h240.7c2.4843 0 4.5-2.012 4.5-4.5l-0.00004375-39.024z" transform="matrix(1 0 0 -1 575.35 705.76)"/>
      <path fill="none" d="m-0.00004375-0.0019188c0-2.4805-2.0157-4.5-4.5-4.5h-240.7c-2.48 0-4.5 2.0195-4.5 4.5v39.024c0 2.488 2.02 4.5 4.5 4.5h240.7c2.4843 0 4.5-2.012 4.5-4.5l-0.00004375-39.024z" transform="matrix(1 0 0 -1 575.35 705.76)"/>
      <path fill="#fff" d="m-0.00004375-0.00003125c0-2.4844-2.0157-4.5-4.5-4.5h-240.7c-2.48 0-4.5 2.0156-4.5 4.5v39.023c0 2.489 2.02 4.5 4.5 4.5h240.7c2.4843 0 4.5-2.011 4.5-4.5l-0.00004375-39.023z" transform="matrix(1 0 0 -1 575.35 753.89)"/>
      <path fill="none" d="m-0.00004375-0.00003125c0-2.4844-2.0157-4.5-4.5-4.5h-240.7c-2.48 0-4.5 2.0156-4.5 4.5v39.023c0 2.489 2.02 4.5 4.5 4.5h240.7c2.4843 0 4.5-2.011 4.5-4.5l-0.00004375-39.023z" transform="matrix(1 0 0 -1 575.35 753.89)"/>
      <path fill="none" d="m612 0h-612v792h612v-792z" transform="matrix(1,0,0,-1,0,792)"/>
    </g>
    <g clip-path="url(#clip2)">
      <path stroke="#100e0c" fill="none" d="m0 792h612v-792h-612v792z" transform="matrix(1,0,0,-1,0,792)"/>
    </g>
  </g>
  <metadata>
    <rdf:RDF>
      <cc:Work>
        <dc:format>image/svg+xml</dc:format>
        <dc:type rdf:resource="http://purl.org/dc/dcmitype/StillImage"/>
        <cc:license rdf:resource="http://creativecommons.org/licenses/publicdomain/"/>
        <dc:publisher>
          <cc:Agent rdf:about="http://openclipart.org/">
            <dc:title>Openclipart</dc:title>
          </cc:Agent>
        </dc:publisher>
        <dc:title>WL-200 Folder Label Template</dc:title>
        <dc:date>2013-10-24T00:33:50</dc:date>
        <dc:description>The complete WL-200 Label Template, ready for download, use and printing. http://www.worldlabel.com/Pages/wl-ol200.htm </dc:description>
        <dc:source>http://openclipart.org/detail/185422/wl-200-folder-label-template-by-worldlabel-185422</dc:source>
        <dc:creator>
          <cc:Agent>
            <dc:title>worldlabel</dc:title>
          </cc:Agent>
        </dc:creator>
        <dc:subject>
          <rdf:Bag>
            <rdf:li>label</rdf:li>
            <rdf:li>template</rdf:li>
            <rdf:li>upload2openclipart</rdf:li>
            <rdf:li>wl-200</rdf:li>
            <rdf:li>worldlabel</rdf:li>
          </rdf:Bag>
        </dc:subject>
      </cc:Work>
      <cc:License rdf:about="http://creativecommons.org/licenses/publicdomain/">
        <cc:permits rdf:resource="http://creativecommons.org/ns#Reproduction"/>
        <cc:permits rdf:resource="http://creativecommons.org/ns#Distribution"/>
        <cc:permits rdf:resource="http://creativecommons.org/ns#DerivativeWorks"/>
      </cc:License>
    </rdf:RDF>
  </metadata>
</svg>
