<svg version="1.1" xmlns="http://www.w3.org/2000/svg" xmlns:xlink="http://www.w3.org/1999/xlink" width="354.33px" height="354.33px" viewBox="0,0,255.99431,255.99431"><defs><linearGradient x1="-571.60705" y1="993.6786" x2="-600.57705" y2="1071.4286" gradientUnits="userSpaceOnUse" id="color-1"><stop offset="0" stop-color="#ffb380"></stop><stop offset="1" stop-color="#ad7a57"></stop></linearGradient></defs><g fill="none" fill-rule="nonzero" stroke="none" stroke-width="none" stroke-linecap="none" stroke-linejoin="none" stroke-miterlimit="10" stroke-dasharray="" stroke-dashoffset="0" font-family="none" font-weight="none" font-size="none" text-anchor="none" style="mix-blend-mode: normal"><g transform="translate(127.99715,-53.02218) rotate(45) scale(0.72249,0.72249)"><g transform="translate(0.00002,-698.03)" id="layer1"><rect x="-0.00002" y="698.03" width="354.33" height="354.33" id="rect4085" fill="none" stroke="none" stroke-width="1" stroke-linecap="butt" stroke-linejoin="miter"></rect><g transform="translate(1301.3,-313.61) scale(0.68529,0.68529)" id="g9409"><g transform="translate(-2210.6,2850.8) rotate(-179.88168) scale(1,1)" id="g6329" stroke="#000000"><path transform="translate(-2204.7,2855.4) rotate(179.88168) scale(1,1)" d="M-1676.7,1569.2l-0.25,1.5626c0.0003,74.185 -0.5012,147.76 -0.6562,221.94l0.25,1.5626l20,11.062l0.1875,-99.812h0.4687v-131.31z" id="path6333" fill="#ffcc00" stroke-width="1" stroke-linecap="butt" stroke-linejoin="miter"></path><path transform="translate(-2204.7,2855.4) rotate(179.88168) scale(1,1)" d="M-1659.7,1573.8c-2.5963,77.249 2.3616,161.63 1.75,231.81l31.062,0.062c3.1613,-77.867 -2.1957,-161.79 -1.7187,-231.88z" id="path6335" fill="#d4aa00" stroke-width="1" stroke-linecap="butt" stroke-linejoin="miter"></path><path transform="translate(-2204.7,2855.4) rotate(179.88168) scale(1,1)" d="M-1609.1,1569.2l-20,5c-0.021,71.957 -0.5328,156.96 -0.6874,229.16l20,-8.9375l0.25,-1.5625c0.4114,-74.256 0.6874,-147.84 0.6874,-222.09z" id="path6337" fill="#aa8800" stroke-width="1" stroke-linecap="butt" stroke-linejoin="miter"></path><path d="M-531.13,1058.9c0,0 -15.043,-10.041 -33.857,-9.7886c-18.814,0.2526 -33.971,8.8818 -33.971,8.8818l33.499,-92.006z" id="path9372" fill="url(#color-1)" stroke-width="1.3819" stroke-linecap="round" stroke-linejoin="round"></path><path transform="translate(-403.59,-181.77)" d="M-161.88,1146.3l-9.125,25.125h18.406l-9.2812,-25.125z" id="path6341" fill="#333333" stroke-width="1" stroke-linecap="butt" stroke-linejoin="miter"></path></g><g transform="translate(-1078,511.45)" id="g9076" stroke-linecap="butt" stroke-linejoin="miter"><path d="M-531.07,1056.6l-19.286,5h-28.571l-19.643,-5.1786v-30.497c0,0 0.69731,-5.9409 2,-8.4312c1.6256,-3.1075 5.1745,-5.4776 8.6423,-6c6.4313,-0.9688 32.447,-2.7572 45.225,0c3.5024,0.7558 6.7719,2.4451 8.9187,6c1.3996,2.3176 2.1483,8.121 2.1483,8.121z" id="path9086" fill="#ff5555" stroke="#000000" stroke-width="4.5"></path><path d="M-538.93,1018.3c-10.755,5.3652 -28.712,7.1467 -38.959,5.0615c-8.0357,-1.7857 -5.0684,-0.018 -5.0684,-0.018c0,0 4.7647,2.9291 18.192,4.444c16.257,1.8341 27.563,-8.2147 25.836,-9.4874z" id="path9088" fill="#ff8080" stroke="none" stroke-width="1"></path><g id="g9090" stroke="#000000"><path d="M-530.95,1076.6l-19.852,5.2692h-27.707l-20.39,-6.108l-0.56821,-21.22l19.927,5.5073h28.912l20.134,-5.441z" id="path9092" fill="#b3b3b3" stroke-width="2.694"></path><path d="M-530.58,1059.7l-19.982,5.3542h-29.136l-19.056,-5.1061" id="path9094" fill="none" stroke-width="1"></path><path d="M-530.71,1069.3l-20.136,5.3953h-29.109l-18.52,-4.9624" id="path9096" fill="none" stroke-width="1"></path></g></g></g></g></g></g></svg>